<?xml version="1.0" encoding="UTF-8"?>
<svg xmlns="http://www.w3.org/2000/svg" xmlns:xlink="http://www.w3.org/1999/xlink" version="1.1" width="512" height="512" x="0" y="0" viewBox="0 0 60 61" style="enable-background:new 0 0 512 512" xml:space="preserve" class="">
  <g>
    <g fill="#000" fill-rule="nonzero">
      <path d="M18.351 37.522a1 1 0 1 0-1.115-1.661 23.318 23.318 0 0 0-3.491 2.876A22.807 22.807 0 0 0 7.376 50.82a1 1 0 0 0 1.968.36 20.8 20.8 0 0 1 5.816-11.029 21.166 21.166 0 0 1 3.191-2.629z" fill="#e83b3b" opacity="1" data-original="#000000" class=""/>
      <path d="M56.977 54.048C56.52 41.205 47.078 30.462 34.4 28.361c.12-.242.22-.493.3-.751a3.007 3.007 0 0 0 3.08-1.82A15.734 15.734 0 0 0 39 19.838a9.771 9.771 0 0 0-1.015-3.39l10.144 4.8c.454.22.951.332 1.455.33a3.38 3.38 0 0 0 1.607-6.35l-.054-.028a3.371 3.371 0 0 0-1.378-5.864C43.318 7.778 36.718 6.45 31.156 5.6 23.62 2.511 17.84.93 14 .93A31.5 31.5 0 0 0 1.173 3.506 1.994 1.994 0 0 0 0 5.33v12.91A2 2 0 0 0 2.959 20l7.219-3.939a4.9 4.9 0 0 1 5.322.333 10.9 10.9 0 0 1 2.645 3.056c1.055 1.75 2.215 3.56 3.438 5.382.245.362.483.7.7 1.022l.353.508a3.2 3.2 0 0 0 2.63 1.369h.048c.081.217.177.429.288.633-12.677 2.1-22.12 12.84-22.579 25.682A3.462 3.462 0 0 0 0 57.5 3.5 3.5 0 0 0 3.5 61h53a3.492 3.492 0 0 0 .477-6.952zM27.529 21.679a6.551 6.551 0 0 1-.58-4.433.613.613 0 0 1 .36-.426 4.649 4.649 0 0 1 3.068.621 4.087 4.087 0 0 1 2.464 3.238c-.02.371-.076.74-.168 1.1a4.9 4.9 0 0 0-5.144-.1zm22.789-8.808a1.37 1.37 0 0 1-1.454 1.117 242.392 242.392 0 0 0-10.016-5c3.4.67 6.937 1.445 10.435 2.293.711.173 1.165.87 1.035 1.59zM24.284 25.223l-.355-.512c-.217-.312-.45-.647-.688-1a135.701 135.701 0 0 1-3.384-5.3 12.862 12.862 0 0 0-3.139-3.608 6.9 6.9 0 0 0-7.5-.505L2 18.24 1.985 5.334A29.5 29.5 0 0 1 14 2.93c3.916 0 10.119 1.8 18.436 5.359 5.409 2.322 11.73 5.412 17.792 8.7.65.352.907 1.152.587 1.818a1.4 1.4 0 0 1-1.827.642l-13.56-6.42a.986.986 0 0 0-1.224.334c-.278.4-.236.94.1 1.291A9.664 9.664 0 0 1 37 20.026a14.189 14.189 0 0 1-1.068 5 1 1 0 0 1-1.369.501 1.044 1.044 0 0 0-.089-.058.957.957 0 0 1-.474-.829c.004-.12.027-.238.067-.35l.11-.358c.352-1.083.574-2.204.662-3.34a6.026 6.026 0 0 0-3.595-4.953c-1.1-.528-3.167-1.314-4.715-.661-.71.3-1.25.898-1.477 1.635-.727 2.17 0 4.454.906 6.471a4.962 4.962 0 0 0-.929 2.61 1.18 1.18 0 0 1-.745-.471zm2.754 1.212A2.826 2.826 0 0 1 27 26a2.993 2.993 0 0 1 3-3c.796 0 1.557.326 2.108.9a2.842 2.842 0 0 0 .787 2.847 2.94 2.94 0 0 1-.765 1.347C31.425 28.036 30.715 28 30 28s-1.428.036-2.134.091a2.955 2.955 0 0 1-.828-1.656zm30.525 32.128c-.282.282-.665.44-1.063.437h-53a1.5 1.5 0 0 1 0-3H10a1 1 0 0 0 0-2H5.024a24.99 24.99 0 0 1 42.649-16.672A24.778 24.778 0 0 1 54.976 54H15a1 1 0 0 0 0 2h41.5a1.5 1.5 0 0 1 1.063 2.563z" fill="#e83b3b" opacity="1" data-original="#000000" class=""/>
      <path d="M8.889 5.348a26.29 26.29 0 0 0-4.218 1.076A1 1 0 0 0 4 7.369V12a1 1 0 0 0 2 0V8.091a24.568 24.568 0 0 1 3.224-.771 1 1 0 0 0-.335-1.972z" fill="#e83b3b" opacity="1" data-original="#000000" class=""/>
      <circle cx="21" cy="35" r="1" fill="#e83b3b" opacity="1" data-original="#000000" class=""/>
    </g>
  </g>
</svg>
